<svg xmlns="http://www.w3.org/2000/svg" width="65.069" height="63.443" viewBox="0 0 65.069 63.443"><path d="M53.547.45H11.523A11.513,11.513,0,0,0,0,11.973v40.4A11.513,11.513,0,0,0,11.523,63.893H53.547A11.513,11.513,0,0,0,65.069,52.37v-40.4A11.513,11.513,0,0,0,53.547.45Zm8.784,50.862a9.823,9.823,0,0,1-9.815,9.869H12.553A9.858,9.858,0,0,1,2.711,51.34V13a9.858,9.858,0,0,1,9.842-9.842H52.489A9.842,9.842,0,0,1,62.331,13Zm-36.6-21.175,7.591,14.586c.136.217.054.434-.163.434H28.441a.532.532,0,0,1-.569-.352c-1.735-3.579-3.5-7.158-5.314-11.008H22.5c-1.627,3.633-3.416,7.456-5.151,11.035a.521.521,0,0,1-.488.3H12.39c-.271,0-.3-.217-.163-.38L19.656,30.6,12.472,16.284a.219.219,0,0,1,.163-.38H17.3a.427.427,0,0,1,.488.3c1.708,3.579,3.443,7.266,5.07,10.872h.054c1.573-3.579,3.308-7.293,4.989-10.845.136-.217.217-.352.488-.352h4.365c.217,0,.3.163.163.38Zm8.92,4.419c0-6.317,4.2-11.252,10.872-11.252a12.023,12.023,0,0,1,1.41.054V16.175A.272.272,0,0,1,47.2,15.9h4.284c.217,0,.271.081.271.217V41.01a19.311,19.311,0,0,0,.136,2.657c0,.163-.054.217-.217.3a16.15,16.15,0,0,1-6.941,1.573C38.852,45.565,34.649,41.932,34.649,34.557Zm12.282-6.941a4.1,4.1,0,0,0-1.573-.271c-3.416,0-5.8,2.63-5.8,6.995,0,4.989,2.44,6.995,5.5,6.995a5.115,5.115,0,0,0,1.871-.3V27.616Z" transform="translate(0 -0.45)" fill="#1fa45d"/></svg>