<svg xmlns="http://www.w3.org/2000/svg" xmlns:xlink="http://www.w3.org/1999/xlink" width="812" height="339" viewBox="0 0 812 339"><defs><clipPath id="a"><rect width="812" height="339" rx="10" transform="translate(140 1645)" fill="#173022"/></clipPath></defs><g transform="translate(-140 -1645)" clip-path="url(#a)"><g transform="translate(471.893 1587.712)"><path d="M10.7,125.117,657.743,1.619a9.134,9.134,0,0,1,3.509.027A10.07,10.07,0,0,1,664.5,2.923a10.226,10.226,0,0,1,2.644,2.313,9.5,9.5,0,0,1,1.681,3.135l94.554,304.213a10.811,10.811,0,0,1,.474,3.981,9.7,9.7,0,0,1-.964,3.6A8.681,8.681,0,0,1,760.679,323a8.3,8.3,0,0,1-3.275,1.671L62.528,502.611a11.45,11.45,0,0,1-4.637.244,10.249,10.249,0,0,1-4.026-1.543,9.951,9.951,0,0,1-2.986-3.05,10.7,10.7,0,0,1-1.519-4.273L1.309,136.887a9.288,9.288,0,0,1,.333-3.954,10.636,10.636,0,0,1,1.88-3.53,11.867,11.867,0,0,1,3.12-2.73A12.256,12.256,0,0,1,10.7,125.117Z" transform="translate(0)" fill="#1f5537"/><path d="M10.7,125.117,657.743,1.619a9.134,9.134,0,0,1,3.509.027A10.07,10.07,0,0,1,664.5,2.923a10.226,10.226,0,0,1,2.644,2.313,9.5,9.5,0,0,1,1.681,3.135l9.17,29.5L5.928,171.214,1.309,136.887a9.288,9.288,0,0,1,.333-3.954,10.636,10.636,0,0,1,1.88-3.53,11.867,11.867,0,0,1,3.12-2.73A12.256,12.256,0,0,1,10.7,125.117Z" transform="translate(0)" fill="#397b56"/><path d="M0,61.584,288.628,0l6.909,31.306L4.926,95Z" transform="translate(69.211 185.904)" fill="#143623"/><path d="M0,40.722,184.891,0l2.29,11.821L1.817,53.046Z" transform="translate(75.042 246.318)" fill="#143623"/><path d="M0,35.342,155.129,0l5.955,32.042L4.893,68.532Z" transform="translate(81.448 295.151)" fill="#143623"/></g></g></svg>