<svg xmlns="http://www.w3.org/2000/svg" width="66" height="66" viewBox="0 0 66 66"><path d="M0,0H66V66H0Z" fill="none"/><path d="M51.124,25.492v6.141H63.405V25.492ZM44.984,45.786c2.947,2.18,6.785,5.066,9.825,7.338,1.228-1.627,2.456-3.285,3.684-4.912-3.04-2.272-6.877-5.158-9.825-7.369C47.44,42.5,46.212,44.159,44.984,45.786ZM58.493,8.912C57.265,7.285,56.037,5.627,54.809,4c-3.04,2.272-6.877,5.158-9.825,7.369,1.228,1.627,2.456,3.285,3.684,4.912C51.615,14.07,55.453,11.215,58.493,8.912ZM8.141,19.351A6.159,6.159,0,0,0,2,25.492v6.141a6.159,6.159,0,0,0,6.141,6.141h3.07V50.054h6.141V37.773h3.07l15.351,9.211V10.141L20.422,19.351Zm35.308,9.211a13.755,13.755,0,0,0-4.605-10.285v20.54A13.639,13.639,0,0,0,43.449,28.562Z" transform="translate(0.297 4.438)" fill="#1fa45d"/></svg>