<svg xmlns="http://www.w3.org/2000/svg" width="80.432" height="65.333" viewBox="0 0 80.432 65.333"><path d="M41.925,40.114a9.513,9.513,0,0,1,3.452-6.723,11.7,11.7,0,0,1,14.823,0,9.492,9.492,0,0,1,3.445,6.719,9.329,9.329,0,0,1-2.9,7.215,11.648,11.648,0,0,1-15.919,0,9.327,9.327,0,0,1-2.9-7.212m-17.3,5.419a19.944,19.944,0,0,0,.858,4.685,24.706,24.706,0,0,0,5.339,9.24,27.571,27.571,0,0,0,9.34,6.706,30.563,30.563,0,0,0,24.522-.04,27.766,27.766,0,0,0,9.333-6.736,24.894,24.894,0,0,0,5.335-9.256,23.339,23.339,0,0,0,.838-10.3,23.872,23.872,0,0,0-3.4-9.313,26.02,26.02,0,0,0-6.207-6.847h.007L45.464,4.376l-.067-.05a5.586,5.586,0,0,0-6.233.007c-1.833,1.28-2.041,3.4-.412,4.742l0,0L49.224,17.6l-31.938.034h-.044c-2.641,0-5.178,1.736-5.681,3.928-.516,2.229,1.274,4.079,4.022,4.089v.007l16.187-.034L2.882,47.8l-.114.084C.043,49.967-.835,53.439.881,55.634c1.743,2.235,5.446,2.239,8.2.013l15.765-12.9a24.285,24.285,0,0,0-.211,2.785Zm40.518,5.835a18.226,18.226,0,0,1-25.443.04,15.115,15.115,0,0,1-3.472-5.436,14.35,14.35,0,0,1,.945-11.793,15.758,15.758,0,0,1,3.864-4.595,18.364,18.364,0,0,1,22.769-.034,15.662,15.662,0,0,1,3.861,4.581,14.344,14.344,0,0,1,1.749,5.717,14.2,14.2,0,0,1-.8,6.069,15.215,15.215,0,0,1-3.469,5.449" transform="translate(0 -3.379)" fill="#1fa45d"/></svg>