<svg xmlns="http://www.w3.org/2000/svg" width="91.136" height="30" viewBox="0 0 91.136 30"><g transform="translate(-0.36 -0.47)"><path d="M86.291,32.5A7.52,7.52,0,1,1,78.77,25,7.4,7.4,0,0,1,86.291,32.5ZM83,32.5a4.239,4.239,0,1,0-8.457,0A4.239,4.239,0,1,0,83,32.5Z" transform="translate(-46.93 -16.239)" fill="#ea4335"/><path d="M134.291,32.5a7.52,7.52,0,1,1-7.52-7.5A7.4,7.4,0,0,1,134.291,32.5ZM131,32.5a4.239,4.239,0,1,0-8.456,0,4.239,4.239,0,1,0,8.456,0Z" transform="translate(-78.706 -16.239)" fill="#fbbc05"/><path d="M181.6,25.453V38.912c0,5.536-3.265,7.8-7.125,7.8a7.139,7.139,0,0,1-6.645-4.418L170.7,41.1a4.141,4.141,0,0,0,3.775,2.66c2.471,0,4-1.524,4-4.394V38.286h-.115a5.1,5.1,0,0,1-3.948,1.7,7.5,7.5,0,0,1,0-14.99,5.2,5.2,0,0,1,3.948,1.676h.115v-1.22H181.6Zm-2.893,7.071c0-2.64-1.761-4.57-4-4.57a4.335,4.335,0,0,0-4.174,4.57,4.3,4.3,0,0,0,4.174,4.516C176.947,37.039,178.708,35.136,178.708,32.524Z" transform="translate(-110.47 -16.239)" fill="#4285f4"/><path d="M218.711,3V24.969H215.5V3Z" transform="translate(-142.425 -1.675)" fill="#34a853"/><path d="M240.22,34.957l2.555,1.7a7.462,7.462,0,0,1-6.246,3.322,7.335,7.335,0,0,1-7.439-7.5,7.124,7.124,0,0,1,7.071-7.5,6.962,6.962,0,0,1,6.415,4.769l.341.852L232.9,34.761a3.815,3.815,0,0,0,3.633,2.271,4.279,4.279,0,0,0,3.691-2.075Zm-7.865-2.7,6.7-2.782a2.9,2.9,0,0,0-2.782-1.589A4.112,4.112,0,0,0,232.355,32.26Z" transform="translate(-151.422 -16.232)" fill="#ea4335"/><path d="M12.166,14.307v-3.18H22.884a10.538,10.538,0,0,1,.159,1.92,10.5,10.5,0,0,1-2.755,7.439,10.644,10.644,0,0,1-8.119,3.265A11.8,11.8,0,0,1,.36,12.11,11.8,11.8,0,0,1,12.169.47a11.092,11.092,0,0,1,7.977,3.208L17.9,5.922A8.107,8.107,0,0,0,12.166,3.65a8.35,8.35,0,0,0-8.348,8.46,8.35,8.35,0,0,0,8.348,8.46,7.787,7.787,0,0,0,5.878-2.329A6.592,6.592,0,0,0,19.767,14.3Z" transform="translate(0 0)" fill="#4285f4"/></g></svg>