<svg xmlns="http://www.w3.org/2000/svg" width="66" height="66" viewBox="0 0 66 66"><g transform="translate(-1541 -1329)"><path d="M17.941,37.374a8.953,8.953,0,0,0-8.965,8.965A6.064,6.064,0,0,1,3,52.315a15.461,15.461,0,0,0,11.953,5.976A11.949,11.949,0,0,0,26.906,46.338,8.953,8.953,0,0,0,17.941,37.374Zm40.968-28-4-4a2.976,2.976,0,0,0-4.213,0L23.917,32.145l8.218,8.218L58.909,13.588a2.976,2.976,0,0,0,0-4.213Z" transform="translate(1543 1330.504)" fill="#1fa45d"/><rect width="66" height="66" transform="translate(1541 1329)" fill="none"/></g></svg>