<svg xmlns="http://www.w3.org/2000/svg" width="56.783" height="64.046" viewBox="0 0 56.783 64.046"><path d="M28.428,64.331a4.978,4.978,0,0,1-2.466-.661l-7.841-4.639c-1.169-.661-.6-.89-.216-1.017A15.446,15.446,0,0,0,21.451,56.4a.573.573,0,0,1,.585.051l6.024,3.571a.736.736,0,0,0,.724,0L52.257,46.475a.752.752,0,0,0,.356-.635v-27.1a.757.757,0,0,0-.369-.648L28.784,4.561a.736.736,0,0,0-.724,0L4.612,18.109a.742.742,0,0,0-.369.648V45.84a.7.7,0,0,0,.369.623l6.431,3.711c3.495,1.741,5.63-.305,5.63-2.377V21.057a.673.673,0,0,1,.686-.674h2.974a.681.681,0,0,1,.686.674V47.809c0,4.651-2.542,7.32-6.952,7.32-1.36,0-2.427,0-5.4-1.474L2.515,50.11A4.942,4.942,0,0,1,.049,45.827V18.744a4.957,4.957,0,0,1,2.466-4.283L25.963.914a5.146,5.146,0,0,1,4.931,0l23.473,13.56a4.942,4.942,0,0,1,2.466,4.283V45.84a4.973,4.973,0,0,1-2.466,4.283L30.894,63.67a4.943,4.943,0,0,1-2.466.661Zm18.949-26.7c0-5.071-3.431-6.418-10.637-7.371-7.295-.966-8.032-1.462-8.032-3.164,0-1.411.623-3.292,6.024-3.292,4.817,0,6.6,1.042,7.333,4.3a.68.68,0,0,0,.661.534h3.05a.663.663,0,0,0,.5-.216.707.707,0,0,0,.178-.521c-.47-5.6-4.194-8.21-11.718-8.21-6.7,0-10.688,2.821-10.688,7.562,0,5.134,3.978,6.558,10.4,7.193,7.689.75,8.286,1.881,8.286,3.393,0,2.618-2.11,3.736-7.053,3.736-6.215,0-7.574-1.563-8.032-4.651a.673.673,0,0,0-.674-.572H23.929a.67.67,0,0,0-.674.674c0,3.952,2.148,8.667,12.429,8.667,7.422-.013,11.692-2.948,11.692-8.057Z" transform="translate(-0.049 -0.285)" fill="#1fa45d"/></svg>