<svg xmlns="http://www.w3.org/2000/svg" xmlns:xlink="http://www.w3.org/1999/xlink" width="134.999" height="137.309" viewBox="0 0 134.999 137.309"><defs><clipPath id="a"><rect width="134.999" height="137.309" fill="#1fa45d"/></clipPath></defs><g clip-path="url(#a)"><path d="M0,35.5V102.98a9.725,9.725,0,0,0,5.189,8.6l46.468,24.509a10.536,10.536,0,0,0,8.59.556L128.658,111.2a9.727,9.727,0,0,0,6.336-9.115L135,34.676a9.727,9.727,0,0,0-5.207-8.613L82.421,1.206A10.538,10.538,0,0,0,73.773.69L6.264,26.409A9.726,9.726,0,0,0,0,35.5" transform="translate(0 0)" fill="#1fa45d"/></g></svg>