<svg xmlns="http://www.w3.org/2000/svg" width="63.036" height="63.036" viewBox="0 0 63.036 63.036"><path d="M32.08.563A31.518,31.518,0,1,0,63.6,32.08,31.553,31.553,0,0,0,32.08.563ZM3.74,32.08A28.143,28.143,0,0,1,6.193,20.553L19.715,57.587A28.362,28.362,0,0,1,3.74,32.08ZM32.08,60.421a28.229,28.229,0,0,1-8.007-1.157l8.5-24.706,8.706,23.867a3.83,3.83,0,0,0,.2.394A28.372,28.372,0,0,1,32.08,60.421Zm3.9-41.621c1.7-.089,3.241-.267,3.241-.267a1.173,1.173,0,0,0-.178-2.338s-4.588.356-7.549.356c-2.783,0-7.46-.356-7.46-.356a1.173,1.173,0,0,0-.178,2.338s1.449.178,2.974.267l4.41,12.1-6.2,18.593L14.72,18.8c1.7-.089,3.241-.267,3.241-.267a1.173,1.173,0,0,0-.178-2.338s-4.588.356-7.549.356c-.534,0-1.157-.013-1.83-.038A28.34,28.34,0,0,1,51.22,11.174a3.591,3.591,0,0,0-.369-.025A4.9,4.9,0,0,0,46.1,16.182c0,2.338,1.347,4.308,2.783,6.647a14.873,14.873,0,0,1,2.338,7.816c0,2.427-.928,5.236-2.161,9.163L46.238,49.25,35.982,18.8ZM46.327,56.57l8.655-25.024a26.805,26.805,0,0,0,2.161-10.154,20.857,20.857,0,0,0-.191-2.91A28.342,28.342,0,0,1,46.327,56.57Z" transform="translate(-0.563 -0.563)" fill="#1fa45d"/></svg>